<?xml version="1.0" standalone="no"?>
<!DOCTYPE svg PUBLIC "-//W3C//DTD SVG 20010904//EN"
 "http://www.w3.org/TR/2001/REC-SVG-20010904/DTD/svg10.dtd">
<svg version="1.0" xmlns="http://www.w3.org/2000/svg"
 width="700.000000pt" height="700.000000pt" viewBox="0 0 700.000000 700.000000"
 preserveAspectRatio="xMidYMid meet">
<metadata>
Created by potrace 1.11, written by Peter Selinger 2001-2013
</metadata>
<g transform="translate(0.000000,700.000000) scale(0.100000,-0.100000)"
fill="#000000" stroke="none">
<path d="M2 6673 l3 -148 242 -1 c133 -1 267 -4 297 -8 167 -18 310 -119 385
-271 19 -38 65 -197 126 -435 53 -206 98 -382 100 -390 2 -8 30 -121 64 -250
33 -129 92 -361 131 -515 158 -619 182 -715 211 -825 17 -63 32 -122 34 -130
2 -9 29 -114 60 -235 31 -121 58 -227 60 -235 2 -8 12 -50 23 -93 l20 -79 -26
-21 c-119 -100 -193 -218 -226 -364 -77 -344 144 -695 492 -780 61 -15 250
-16 2117 -17 l2051 -1 0 147 c0 128 -2 148 -15 149 -9 1 -929 2 -2046 3 -1117
1 -2039 6 -2050 11 -78 32 -106 48 -147 85 -175 153 -148 439 53 566 91 57
-45 54 2222 54 1144 0 2082 2 2085 4 5 6 69 232 388 1376 85 305 163 584 174
620 11 36 31 107 45 158 43 159 73 264 99 356 14 48 26 89 26 90 0 1 -235 2
-522 1 -288 0 -530 1 -539 3 -10 2 -28 44 -54 125 -21 67 -62 194 -91 282 -43
132 -235 727 -250 773 -2 7 -7 11 -11 9 -5 -2 -64 -22 -133 -45 -281 -90 -759
-245 -810 -262 -30 -10 -190 -62 -355 -115 -165 -54 -301 -98 -302 -99 -1 0
48 -149 107 -331 70 -209 106 -332 99 -336 -10 -6 -58 -4 -63 3 -2 2 -90 264
-196 583 -106 319 -195 585 -199 591 -4 7 -46 -2 -126 -28 -66 -22 -183 -59
-260 -84 -77 -25 -228 -74 -335 -109 -107 -35 -271 -88 -365 -118 -320 -104
-520 -169 -522 -171 -1 -1 47 -150 106 -331 59 -182 105 -332 100 -335 -4 -3
-195 -5 -424 -4 -325 0 -418 3 -425 13 -4 7 -29 101 -55 209 -25 109 -51 208
-55 222 -5 14 -18 66 -30 115 -12 50 -23 95 -24 100 -45 183 -102 296 -213
416 -106 114 -250 197 -403 232 -48 12 -137 16 -357 17 l-294 1 3 -148z m5477
-751 c72 -216 131 -396 131 -401 0 -6 -238 -10 -578 -10 l-579 0 -10 32 c-13
38 -68 193 -117 330 l-35 98 22 9 c12 5 171 57 352 115 182 59 409 133 505
164 96 32 176 58 176 57 1 -1 61 -178 133 -394z m-1919 171 c39 -120 75 -227
80 -238 10 -22 110 -331 110 -338 0 -3 -260 -5 -578 -6 l-579 0 -79 222 c-43
122 -79 226 -79 232 0 12 -1 11 415 146 190 61 404 130 475 154 72 24 137 44
147 44 12 1 32 -47 88 -216z m3045 -884 c2 -3 -36 -151 -86 -330 -50 -178
-101 -362 -114 -409 -13 -47 -49 -175 -79 -285 -31 -110 -70 -247 -86 -305
-124 -447 -191 -684 -193 -686 -3 -3 -2889 -6 -3723 -5 l-301 1 -10 48 c-6 26
-25 101 -42 167 -18 66 -59 226 -92 355 -33 129 -69 269 -80 310 -11 41 -22
82 -24 90 -1 8 -26 104 -54 213 -28 108 -74 286 -102 395 -28 108 -64 248 -80
311 -16 63 -28 119 -26 125 3 8 745 11 2546 10 1397 0 2543 -3 2546 -5z"/>
<path d="M2425 1415 c-314 -77 -521 -369 -483 -682 29 -245 207 -457 438 -525
398 -116 790 166 805 580 12 345 -276 642 -622 640 -48 -1 -110 -7 -138 -13z
m275 -301 c77 -35 150 -112 180 -191 106 -283 -191 -554 -465 -423 -178 85
-247 309 -147 475 93 154 271 211 432 139z"/>
<path d="M4703 1410 c-264 -69 -451 -295 -469 -567 -31 -476 473 -809 903
-597 246 122 385 402 333 673 -66 349 -426 580 -767 491z m297 -296 c176 -80
249 -305 153 -472 -132 -230 -447 -236 -588 -12 -43 68 -58 145 -45 227 37
223 274 350 480 257z"/>
</g>
</svg>
